# xmcd CD database file
#
# Track frame offsets:
#	150
#	27326
#	53617
#	80807
#	103186
#	132498
#	152956
#	186241
#	211005
#	233850
#	258989
#	278827
#
# Disc length: 4176 seconds
#
# Revision: 0
# Processed by: cddbd v1.5.2PL0 Copyright (c) Steve Scherf et al.
# Submitted via: CDex 1.51
#
DISCID=a9104e0c
DTITLE=Jack Wilkins - Until its Time
DYEAR=2005
DGENRE=Jazz
TTITLE0=Arthur's Theme
TTITLE1=Show Me
TTITLE2=Blossom
TTITLE3=Walk Don't Run
TTITLE4=These Follish Things
TTITLE5=Lauro's Waltz
TTITLE6=Two for the Road
TTITLE7=Fur Elise
TTITLE8=Tico Tico
TTITLE9=Airegin
TTITLE10=Until It;s Time for You to Go
TTITLE11=Blossom (Extended Version)
EXTD=YEAR: 2005
EXTT0=
EXTT1=
EXTT2=
EXTT3=
EXTT4=
EXTT5=
EXTT6=
EXTT7=
EXTT8=
EXTT9=
EXTT10=
EXTT11=
PLAYORDER=
